<svg width="24" height="24" viewBox="0 0 24 24" fill="none" xmlns="http://www.w3.org/2000/svg">
<g clip-path="url(#clip0_69_306)">
<path d="M17.181 24H6.81905C5.89903 24 5.00577 23.8196 4.16442 23.4638C3.35227 23.1202 2.62316 22.6287 1.99722 22.0028C1.37127 21.3768 0.879793 20.6477 0.536246 19.8356C0.180371 18.9942 0 18.1011 0 17.181V6.81905C0 5.89903 0.180371 5.00577 0.536246 4.16442C0.879793 3.35227 1.37127 2.62316 1.99722 1.99722C2.62316 1.37127 3.35227 0.879793 4.16442 0.536246C5.00577 0.180371 5.89887 0 6.81905 0H17.181C18.101 0 18.9942 0.180371 19.8356 0.536246C20.6477 0.879793 21.3768 1.37127 22.0028 1.99722C22.6287 2.62316 23.1202 3.35227 23.4638 4.16442C23.8196 5.00577 24 5.89887 24 6.81905V17.181C24 18.101 23.8196 18.9942 23.4638 19.8356C23.1202 20.6477 22.6287 21.3768 22.0028 22.0028C21.3768 22.6287 20.6477 23.1202 19.8356 23.4638C18.9942 23.8196 18.1011 24 17.181 24ZM6.81905 2.11481C4.22509 2.11481 2.11481 4.22509 2.11481 6.81905V17.181C2.11481 19.7748 4.22509 21.8852 6.81905 21.8852H17.181C19.7748 21.8852 21.8852 19.7749 21.8852 17.181V6.81905C21.8852 4.22509 19.7749 2.11481 17.181 2.11481H6.81905Z" fill="black"/>
<path d="M12.0002 18.2155C11.1616 18.2155 10.3475 18.051 9.5804 17.7266C8.8401 17.4136 8.17555 16.9656 7.60508 16.3951C7.03461 15.8246 6.5866 15.1601 6.27355 14.4198C5.94914 13.6529 5.78467 12.8388 5.78467 12C5.78467 11.1613 5.94914 10.3473 6.27355 9.58028C6.5866 8.83998 7.03461 8.17543 7.60508 7.60496C8.17555 7.03449 8.8401 6.58648 9.5804 6.27343C10.3473 5.94902 11.1614 5.78455 12.0002 5.78455C12.8389 5.78455 13.6529 5.94902 14.4199 6.27343C15.1602 6.58648 15.8248 7.03449 16.3952 7.60496C16.9657 8.17543 17.4137 8.83998 17.7268 9.58028C18.0512 10.3472 18.2156 11.1613 18.2156 12C18.2156 12.8388 18.0512 13.6527 17.7268 14.4198C17.4137 15.1601 16.9657 15.8246 16.3952 16.3951C15.8248 16.9656 15.1602 17.4136 14.4199 17.7266C13.653 18.051 12.8389 18.2155 12.0002 18.2155ZM12.0002 7.89936C9.73903 7.89936 7.89948 9.73891 7.89948 12C7.89948 14.2612 9.73903 16.1007 12.0002 16.1007C14.2613 16.1007 16.1008 14.2612 16.1008 12C16.1008 9.73891 14.2613 7.89936 12.0002 7.89936Z" fill="black"/>
<path d="M18.5502 6.9723C19.3548 6.9723 20.0071 6.32002 20.0071 5.51539C20.0071 4.71075 19.3548 4.05847 18.5502 4.05847C17.7455 4.05847 17.0933 4.71075 17.0933 5.51539C17.0933 6.32002 17.7455 6.9723 18.5502 6.9723Z" fill="black"/>
</g>
<defs>
<clipPath id="clip0_69_306">
<rect width="24" height="24" fill="white"/>
</clipPath>
</defs>
</svg>
