<svg width="38" height="39" viewBox="0 0 38 39" fill="none" xmlns="http://www.w3.org/2000/svg">
<path d="M32.5044 5.74569C28.983 2.16944 24.1523 0.163123 19.122 0.186729H19.09C8.73059 0.186762 0.205823 8.67235 0.205823 18.9841C0.205823 19.0325 0.206859 19.0798 0.206859 19.1282C0.245879 22.4067 1.09852 25.6248 2.68891 28.496L0 38.2755L10.0213 35.702C12.7896 37.2148 15.902 37.9947 19.06 37.9667C29.4577 37.9101 37.9814 29.3762 37.9752 19.0253C38 14.0521 36.0299 9.26941 32.5044 5.74569ZM19.122 34.7755C16.3227 34.79 13.5726 34.0425 11.1692 32.6137L10.5487 32.3049L4.58142 33.849L6.13269 27.9813L5.71904 27.3636C4.18244 24.8939 3.36837 22.0466 3.36832 19.1416C3.36832 10.5747 10.4504 3.52518 19.0569 3.52518C27.6634 3.52518 34.7454 10.5747 34.7454 19.1416C34.7454 24.5358 31.9376 29.5615 27.3334 32.4078C24.8984 33.9605 22.0656 34.7825 19.1738 34.7755M28.2642 23.3488L27.1266 22.8342C27.1266 22.8342 25.4719 22.1135 24.4377 21.5988C24.3343 21.5988 24.2309 21.4959 24.1275 21.4959C23.8725 21.5022 23.6234 21.573 23.4035 21.7018C23.1833 21.8305 23.3001 21.8047 21.8523 23.4518C21.754 23.6443 21.5524 23.7648 21.3352 23.7606H21.2318C21.0763 23.7347 20.9322 23.663 20.8181 23.5548L20.301 23.3488C19.1915 22.8813 18.1756 22.2188 17.3019 21.393C17.095 21.1871 16.7848 20.9812 16.5779 20.7753C15.8123 20.0452 15.1512 19.2139 14.613 18.3047L14.5096 18.0988C14.4197 17.973 14.35 17.8341 14.3027 17.687C14.2757 17.5087 14.3123 17.3266 14.4062 17.1723C14.5003 17.0179 14.8198 16.6576 15.1301 16.3488C15.4404 16.0399 15.4404 15.8341 15.6472 15.6282C15.7535 15.4812 15.8269 15.3133 15.8626 15.1357C15.8983 14.9582 15.8954 14.7751 15.854 14.5987C15.372 13.2667 14.8197 11.9609 14.1993 10.6869C14.033 10.4295 13.774 10.2453 13.4754 10.1722H12.3378C12.131 10.1722 11.9241 10.2751 11.7173 10.2751L11.6139 10.3781C11.407 10.481 11.2002 10.6869 10.9933 10.7899C10.7865 10.8928 10.6831 11.2016 10.4763 11.4075C9.7533 12.3169 9.35326 13.4391 9.33867 14.5987C9.35012 15.4144 9.52595 16.2196 9.85573 16.9664L9.95918 17.2752C10.8878 19.2515 12.1865 21.0333 13.7857 22.5253L14.1993 22.9371C14.5004 23.1853 14.7773 23.461 15.0267 23.7606C17.1695 25.6167 19.7146 26.9549 22.4625 27.6725C22.7727 27.7754 23.1864 27.7754 23.4966 27.8783H24.5308C25.0713 27.8518 25.6001 27.7114 26.0821 27.4666C26.3354 27.3523 26.5774 27.2144 26.806 27.0548L27.0128 26.8489C27.2197 26.643 27.4265 26.5401 27.6334 26.3342C27.8355 26.1549 28.0098 25.9468 28.1505 25.7165C28.349 25.2554 28.4886 24.7715 28.5641 24.2754V23.5548C28.4712 23.4716 28.3667 23.4023 28.2539 23.3488" fill="#00E676"/>
</svg>
