<svg width="40" height="40" viewBox="0 0 40 40" fill="none" xmlns="http://www.w3.org/2000/svg">
<mask id="mask0_22_42" style="mask-type:alpha" maskUnits="userSpaceOnUse" x="0" y="0" width="40" height="40">
<rect width="40" height="40" fill="#D9D9D9"/>
</mask>
<g mask="url(#mask0_22_42)">
<path d="M20.0002 36.6668C17.7224 36.6668 15.5696 36.2293 13.5418 35.3543C11.5141 34.4793 9.74322 33.2849 8.22933 31.771C6.71544 30.2571 5.521 28.4863 4.646 26.4585C3.771 24.4307 3.3335 22.2779 3.3335 20.0002C3.3335 17.6946 3.771 15.5349 4.646 13.521C5.521 11.5071 6.71544 9.74322 8.22933 8.22933C9.74322 6.71544 11.5141 5.521 13.5418 4.646C15.5696 3.771 17.7224 3.3335 20.0002 3.3335C22.3057 3.3335 24.4654 3.771 26.4793 4.646C28.4932 5.521 30.2571 6.71544 31.771 8.22933C33.2849 9.74322 34.4793 11.5071 35.3543 13.521C36.2293 15.5349 36.6668 17.6946 36.6668 20.0002C36.6668 22.2779 36.2293 24.4307 35.3543 26.4585C34.4793 28.4863 33.2849 30.2571 31.771 31.771C30.2571 33.2849 28.4932 34.4793 26.4793 35.3543C24.4654 36.2293 22.3057 36.6668 20.0002 36.6668ZM20.0002 33.2502C20.7224 32.2502 21.3474 31.2085 21.8752 30.1252C22.4029 29.0418 22.8335 27.8891 23.1668 26.6668H16.8335C17.1668 27.8891 17.5974 29.0418 18.1252 30.1252C18.6529 31.2085 19.2779 32.2502 20.0002 33.2502ZM15.6668 32.5835C15.1668 31.6668 14.7293 30.7154 14.3543 29.7293C13.9793 28.7432 13.6668 27.7224 13.4168 26.6668H8.50016C9.30572 28.0557 10.3127 29.2641 11.521 30.2918C12.7293 31.3196 14.1113 32.0835 15.6668 32.5835ZM24.3335 32.5835C25.8891 32.0835 27.271 31.3196 28.4793 30.2918C29.6877 29.2641 30.6946 28.0557 31.5002 26.6668H26.5835C26.3335 27.7224 26.021 28.7432 25.646 29.7293C25.271 30.7154 24.8335 31.6668 24.3335 32.5835ZM7.0835 23.3335H12.7502C12.6668 22.7779 12.6043 22.2293 12.5627 21.6877C12.521 21.146 12.5002 20.5835 12.5002 20.0002C12.5002 19.4168 12.521 18.8543 12.5627 18.3127C12.6043 17.771 12.6668 17.2224 12.7502 16.6668H7.0835C6.94461 17.2224 6.84044 17.771 6.771 18.3127C6.70155 18.8543 6.66683 19.4168 6.66683 20.0002C6.66683 20.5835 6.70155 21.146 6.771 21.6877C6.84044 22.2293 6.94461 22.7779 7.0835 23.3335ZM16.0835 23.3335H23.9168C24.0002 22.7779 24.0627 22.2293 24.1043 21.6877C24.146 21.146 24.1668 20.5835 24.1668 20.0002C24.1668 19.4168 24.146 18.8543 24.1043 18.3127C24.0627 17.771 24.0002 17.2224 23.9168 16.6668H16.0835C16.0002 17.2224 15.9377 17.771 15.896 18.3127C15.8543 18.8543 15.8335 19.4168 15.8335 20.0002C15.8335 20.5835 15.8543 21.146 15.896 21.6877C15.9377 22.2293 16.0002 22.7779 16.0835 23.3335ZM27.2502 23.3335H32.9168C33.0557 22.7779 33.1599 22.2293 33.2293 21.6877C33.2988 21.146 33.3335 20.5835 33.3335 20.0002C33.3335 19.4168 33.2988 18.8543 33.2293 18.3127C33.1599 17.771 33.0557 17.2224 32.9168 16.6668H27.2502C27.3335 17.2224 27.396 17.771 27.4377 18.3127C27.4793 18.8543 27.5002 19.4168 27.5002 20.0002C27.5002 20.5835 27.4793 21.146 27.4377 21.6877C27.396 22.2293 27.3335 22.7779 27.2502 23.3335ZM26.5835 13.3335H31.5002C30.6946 11.9446 29.6877 10.7363 28.4793 9.7085C27.271 8.68072 25.8891 7.91683 24.3335 7.41683C24.8335 8.3335 25.271 9.28488 25.646 10.271C26.021 11.2571 26.3335 12.2779 26.5835 13.3335ZM16.8335 13.3335H23.1668C22.8335 12.1113 22.4029 10.9585 21.8752 9.87516C21.3474 8.79183 20.7224 7.75016 20.0002 6.75016C19.2779 7.75016 18.6529 8.79183 18.1252 9.87516C17.5974 10.9585 17.1668 12.1113 16.8335 13.3335ZM8.50016 13.3335H13.4168C13.6668 12.2779 13.9793 11.2571 14.3543 10.271C14.7293 9.28488 15.1668 8.3335 15.6668 7.41683C14.1113 7.91683 12.7293 8.68072 11.521 9.7085C10.3127 10.7363 9.30572 11.9446 8.50016 13.3335Z" fill="white"/>
</g>
</svg>
